<svg xmlns="http://www.w3.org/2000/svg" width="40" height="29.953" viewBox="0 0 40 29.953"><defs><style>.a{fill:#fff;}</style></defs><path class="a" d="M36.667,32H3.333A3.274,3.274,0,0,0,0,35.209V58.744a3.274,3.274,0,0,0,3.333,3.209H36.667A3.274,3.274,0,0,0,40,58.744V35.209A3.274,3.274,0,0,0,36.667,32Zm0,26.744H3.333V35.209H36.667ZM14.444,46.976a4.282,4.282,0,1,0,0-8.558,4.282,4.282,0,1,0,0,8.558ZM8.222,55.534H20.667a1.438,1.438,0,0,0,1.556-1.284V52.967c0-2.126-2.09-3.851-4.667-3.851-.75,0-1.3.535-3.111.535-1.868,0-2.319-.535-3.111-.535-2.576,0-4.667,1.725-4.667,3.851v1.284A1.438,1.438,0,0,0,8.222,55.534ZM25,51.255h7.778a.547.547,0,0,0,.556-.535v-1.07a.547.547,0,0,0-.556-.535H25a.547.547,0,0,0-.556.535v1.07A.547.547,0,0,0,25,51.255Zm0-4.279h7.778a.547.547,0,0,0,.556-.535v-1.07a.547.547,0,0,0-.556-.535H25a.547.547,0,0,0-.556.535v1.07A.547.547,0,0,0,25,46.976ZM25,42.7h7.778a.547.547,0,0,0,.556-.535v-1.07a.547.547,0,0,0-.556-.535H25a.547.547,0,0,0-.556.535v1.07A.547.547,0,0,0,25,42.7Z" transform="translate(0 -32)"/></svg>