<svg xmlns="http://www.w3.org/2000/svg" xmlns:xlink="http://www.w3.org/1999/xlink" width="22" height="22" viewBox="0 0 22 22"><defs><style>.a{fill:#707070;}.b{clip-path:url(#a);}</style><clipPath id="a"><rect class="a" width="22" height="22" transform="translate(68 420)"/></clipPath></defs><g class="b" transform="translate(-68 -420)"><path class="a" d="M17.617,6.6a4.39,4.39,0,0,0-1.6.292l-2.67-4.3a.825.825,0,0,0-.7-.39h-2.2a.55.55,0,0,0-.55.55V3.3a.55.55,0,0,0,.55.55h1.741l.512.825H8.8v-.55a.55.55,0,0,0-.55-.55H5.244a.84.84,0,0,0-.843.84.825.825,0,0,0,.825.81H6.9L5.889,6.858A4.4,4.4,0,1,0,8.661,12.1H10.45a.825.825,0,0,0,.7-.391l2.955-4.773.513.827a4.388,4.388,0,0,0-1.42,3.246,4.457,4.457,0,0,0,4.356,4.39,4.4,4.4,0,1,0,.061-8.8ZM6.42,9.136a2.745,2.745,0,0,1,.675,1.314H5.606ZM4.4,13.75a2.75,2.75,0,1,1,.588-5.436L3.424,10.841a.825.825,0,0,0,.7,1.259H6.92A2.754,2.754,0,0,1,4.4,13.75Zm5.59-3.3H8.766A4.391,4.391,0,0,0,7.309,7.7L8.16,6.325h4.384L9.99,10.45Zm7.461,3.3a2.748,2.748,0,0,1-1.935-4.538l1.527,2.461a.55.55,0,0,0,.757.177l.467-.29a.55.55,0,0,0,.177-.757L16.917,8.336a2.75,2.75,0,1,1,.534,5.41Z" transform="translate(68 422.2)"/></g></svg>