<svg xmlns="http://www.w3.org/2000/svg" width="35" height="40" viewBox="0 0 35 40"><defs><style>.a{fill:#fff;}</style></defs><path class="a" d="M35,28.125V1.875A1.871,1.871,0,0,0,33.125,0H7.5A7.5,7.5,0,0,0,0,7.5v25A7.5,7.5,0,0,0,7.5,40H33.125A1.871,1.871,0,0,0,35,38.125v-1.25a1.89,1.89,0,0,0-.7-1.461,17.422,17.422,0,0,1,0-5.836A1.862,1.862,0,0,0,35,28.125ZM10,10.469A.47.47,0,0,1,10.469,10H27.031a.47.47,0,0,1,.469.469v1.563a.47.47,0,0,1-.469.469H10.469A.47.47,0,0,1,10,12.031Zm0,5A.47.47,0,0,1,10.469,15H27.031a.47.47,0,0,1,.469.469v1.563a.47.47,0,0,1-.469.469H10.469A.47.47,0,0,1,10,17.031ZM29.8,35H7.5a2.5,2.5,0,0,1,0-5H29.8A28.127,28.127,0,0,0,29.8,35Z"/></svg>