<svg xmlns="http://www.w3.org/2000/svg" xmlns:xlink="http://www.w3.org/1999/xlink" width="22" height="22" viewBox="0 0 22 22"><defs><style>.a{fill:#707070;}.b{clip-path:url(#a);}</style><clipPath id="a"><rect class="a" width="22" height="22" transform="translate(68 366)"/></clipPath></defs><g class="b" transform="translate(-68 -366)"><path class="a" d="M9.614,5.618,6.644.668A1.375,1.375,0,0,0,5.465,0H.689A.688.688,0,0,0,.125,1.082l4.781,6.83A8.893,8.893,0,0,1,9.614,5.618ZM21.311,0H16.535a1.375,1.375,0,0,0-1.179.668l-2.97,4.95a8.9,8.9,0,0,1,4.708,2.294l4.781-6.83A.688.688,0,0,0,21.311,0ZM11,6.875a7.563,7.563,0,1,0,7.563,7.563A7.563,7.563,0,0,0,11,6.875Zm3.975,6.757-1.63,1.588.385,2.244a.493.493,0,0,1-.715.519L11,16.925,8.985,17.984a.493.493,0,0,1-.715-.519l.385-2.244-1.63-1.588a.494.494,0,0,1,.273-.842l2.253-.328,1.007-2.042a.494.494,0,0,1,.886,0l1.007,2.042,2.253.328A.494.494,0,0,1,14.975,13.632Z" transform="translate(68 366)"/></g></svg>