<svg xmlns="http://www.w3.org/2000/svg" width="40" height="31.107" viewBox="0 0 40 31.107"><defs><style>.a{fill:#fff;}</style></defs><path class="a" d="M36.934,56.594a9.561,9.561,0,0,0,3.055-6.819c0-5.555-5.312-10.145-12.235-10.964C25.567,34.812,20.429,32,14.436,32,6.458,32-.006,36.972-.006,43.11a9.586,9.586,0,0,0,3.055,6.819A18.181,18.181,0,0,1,.431,53.74,1.607,1.607,0,0,0,1.6,56.448a15.961,15.961,0,0,0,8.693-2.694,19.793,19.793,0,0,0,1.972.34c2.18,3.986,7.3,6.791,13.283,6.791a18.38,18.38,0,0,0,4.152-.472,16,16,0,0,0,8.693,2.694A1.607,1.607,0,0,0,39.558,60.4,17.7,17.7,0,0,1,36.934,56.594ZM9.659,50.185l-1.187.771a14.129,14.129,0,0,1-2.993,1.486c.187-.326.375-.674.555-1.028l1.076-2.159-1.722-1.7A6.366,6.366,0,0,1,3.327,43.11c0-4.215,5.09-7.777,11.11-7.777s11.11,3.562,11.11,7.777-5.09,7.777-11.11,7.777a15.13,15.13,0,0,1-3.4-.389l-1.375-.312ZM34.594,54.22l-1.715,1.694,1.076,2.159c.181.354.368.7.555,1.028a14.129,14.129,0,0,1-2.993-1.486l-1.187-.771-1.382.319a15.13,15.13,0,0,1-3.4.389A12.92,12.92,0,0,1,16.429,54.1c7.034-.75,12.45-5.374,12.45-10.992,0-.236-.028-.465-.049-.694,4.472,1.007,7.825,3.944,7.825,7.36A6.366,6.366,0,0,1,34.594,54.22Z" transform="translate(0.007 -32)"/></svg>