<svg xmlns="http://www.w3.org/2000/svg" xmlns:xlink="http://www.w3.org/1999/xlink" width="22" height="22" viewBox="0 0 22 22"><defs><style>.a{fill:#707070;}.b{clip-path:url(#a);}</style><clipPath id="a"><rect class="a" width="22" height="22" transform="translate(67 316)"/></clipPath></defs><g class="b" transform="translate(-67 -316)"><path class="a" d="M11.355.355a11,11,0,1,0,11,11A11,11,0,0,0,11.355.355Zm4.1,13.883h0l-.887,1.109a.71.71,0,0,1-1,.111h0L10.6,13.252a1.774,1.774,0,0,1-.665-1.385v-6.9a.71.71,0,0,1,.71-.71h1.419a.71.71,0,0,1,.71.71v6.387l2.573,1.885A.71.71,0,0,1,15.457,14.238Z" transform="translate(66.645 315.645)"/></g></svg>