<svg xmlns="http://www.w3.org/2000/svg" width="45" height="40" viewBox="0 0 45 40"><defs><style>.a{fill:#fff;}</style></defs><path class="a" d="M22.5,0a9.844,9.844,0,0,0-9.844,9.844c0,4.4,6.434,12.406,8.9,15.314a1.232,1.232,0,0,0,1.891,0c2.465-2.908,8.9-10.919,8.9-15.314A9.844,9.844,0,0,0,22.5,0Zm0,13.125a3.281,3.281,0,1,1,3.281-3.281A3.281,3.281,0,0,1,22.5,13.125ZM1.572,16.871A2.5,2.5,0,0,0,0,19.192V38.748a1.25,1.25,0,0,0,1.714,1.161L12.5,35V16.791a23.659,23.659,0,0,1-1.66-3.627ZM22.5,28.1a3.733,3.733,0,0,1-2.852-1.325C18.112,24.962,16.478,22.9,15,20.78V35l15,5V20.781c-1.478,2.116-3.111,4.181-4.648,5.994A3.735,3.735,0,0,1,22.5,28.1ZM43.286,12.591,32.5,17.5V40l10.928-4.371A2.5,2.5,0,0,0,45,33.308V13.752a1.25,1.25,0,0,0-1.714-1.161Z"/></svg>