<svg xmlns="http://www.w3.org/2000/svg" width="22.868" height="22.868" viewBox="0 0 22.868 22.868"><defs><style>.a{fill:#fff;}</style></defs><path class="a" d="M20.418,32H2.45A2.451,2.451,0,0,0,0,34.45V52.418a2.451,2.451,0,0,0,2.45,2.45H20.418a2.451,2.451,0,0,0,2.45-2.45V34.45A2.451,2.451,0,0,0,20.418,32ZM12.251,46.7H9.8v2.45a.819.819,0,0,1-.817.817H7.35a.819.819,0,0,1-.817-.817V37.717A.819.819,0,0,1,7.35,36.9h4.9a4.9,4.9,0,0,1,0,9.8Zm0-6.534H9.8v3.267h2.45a1.633,1.633,0,1,0,0-3.267Z" transform="translate(0 -32)"/></svg>