<svg xmlns="http://www.w3.org/2000/svg" xmlns:xlink="http://www.w3.org/1999/xlink" width="22" height="22" viewBox="0 0 22 22"><defs><style>.a{fill:#707070;}.b{clip-path:url(#a);}</style><clipPath id="a"><rect class="a" width="22" height="22" transform="translate(68 266)"/></clipPath></defs><g class="b" transform="translate(-68 -266)"><path class="a" d="M8.989,10.029,4.348,8.671a1.267,1.267,0,0,1,.357-2.484H7.554a2.623,2.623,0,0,1,1.47.451.67.67,0,0,0,.838-.086l1.5-1.461a.7.7,0,0,0-.077-1.053A6.076,6.076,0,0,0,7.563,2.75V.688A.69.69,0,0,0,6.875,0H5.5a.69.69,0,0,0-.687.688V2.75H4.705A4.708,4.708,0,0,0,.021,7.889a4.919,4.919,0,0,0,3.6,4.151l4.4,1.289a1.267,1.267,0,0,1-.357,2.484H4.821a2.623,2.623,0,0,1-1.47-.451.67.67,0,0,0-.838.086l-1.5,1.461A.7.7,0,0,0,1.1,17.961,6.076,6.076,0,0,0,4.813,19.25v2.063A.69.69,0,0,0,5.5,22H6.875a.69.69,0,0,0,.688-.687V19.241A4.854,4.854,0,0,0,12.1,16.118a4.718,4.718,0,0,0-3.115-6.089Z" transform="translate(72.812 266)"/></g></svg>