<svg xmlns="http://www.w3.org/2000/svg" width="40" height="40" viewBox="0 0 40 40"><defs><style>.a{fill:#fff;}</style></defs><path class="a" d="M39.456,34.583l-7.79-7.788a1.874,1.874,0,0,0-1.328-.547H29.065a16.247,16.247,0,1,0-2.812,2.812v1.273a1.874,1.874,0,0,0,.547,1.328l7.79,7.788a1.867,1.867,0,0,0,2.648,0l2.211-2.211a1.883,1.883,0,0,0,.008-2.655ZM16.251,27.5A11.248,11.248,0,1,1,27.5,16.248,11.243,11.243,0,0,1,16.251,27.5Zm0-18.747a5.768,5.768,0,0,0-5.769,5.768c0,2.575,3.77,7.27,5.215,8.973a.722.722,0,0,0,1.108,0c1.445-1.7,5.215-6.4,5.215-8.973A5.768,5.768,0,0,0,16.253,8.75Zm0,7.5a1.875,1.875,0,1,1,1.875-1.875A1.875,1.875,0,0,1,16.253,16.25Z"/></svg>