<svg xmlns="http://www.w3.org/2000/svg" xmlns:xlink="http://www.w3.org/1999/xlink" width="22" height="22" viewBox="0 0 22 22"><defs><style>.a{fill:#707070;}.b{clip-path:url(#a);}</style><clipPath id="a"><rect class="a" width="22" height="22" transform="translate(68 483)"/></clipPath></defs><g class="b" transform="translate(-68 -483)"><path class="a" d="M10.514,9.567a.665.665,0,0,0,.974,0l4.159-4.362A3.166,3.166,0,0,0,15.434.668a2.9,2.9,0,0,0-4.006.294L11,1.409,10.575.966a2.9,2.9,0,0,0-4.006-.3,3.169,3.169,0,0,0-.214,4.537ZM21.59,12.531a1.264,1.264,0,0,0-1.627,0l-3.529,2.822a2.432,2.432,0,0,1-1.528.535H10.388a.611.611,0,1,1,0-1.222h2.99a1.272,1.272,0,0,0,1.272-1.016,1.224,1.224,0,0,0-1.207-1.428H7.333a4.5,4.5,0,0,0-2.83,1l-1.776,1.44H.611A.613.613,0,0,0,0,15.277v3.666a.613.613,0,0,0,.611.611H14.238a2.447,2.447,0,0,0,1.528-.535L21.54,14.4A1.222,1.222,0,0,0,21.59,12.531Z" transform="translate(68 484.223)"/></g></svg>